<svg xmlns="http://www.w3.org/2000/svg" viewBox="0 0 1200 640" width="1200" height="640" role="img" aria-labelledby="t d">
<title id="t">Swordtail fish tank size chart: how many swordtails fit in 20, 29, 40 and 55 gallon tanks</title>
<desc id="d">Four aquarium outlines increasing in size, each showing the recommended number of swordtails: 5 in 20 gallons, 6 in 29, 9 in 40 and 12 in 55.</desc>
<defs><linearGradient id="bg" x1="0" y1="0" x2="1" y2="1"><stop offset="0" stop-color="#061b2c"/><stop offset="1" stop-color="#0c3d5c"/></linearGradient>
<linearGradient id="water" x1="0" y1="0" x2="0" y2="1"><stop offset="0" stop-color="#1b6f8f" stop-opacity=".55"/><stop offset="1" stop-color="#0d3550" stop-opacity=".9"/></linearGradient></defs>
<rect width="1200" height="640" rx="24" fill="url(#bg)"/>
<text x="48" y="64" font-family="Inter,-apple-system,Segoe UI,sans-serif" font-size="30" font-weight="800" fill="#ffffff">Swordtail fish tank size: how many swordtails per tank?</text>
<text x="48" y="98" font-family="Inter,-apple-system,Segoe UI,sans-serif" font-size="17" fill="#8aaec2">Planning rule: 20 gallons for a starter group of 5, then 5 US gallons per extra adult. Long tanks beat tall ones.</text>
<rect x="48" y="310" width="194" height="160" rx="10" fill="url(#water)" stroke="#3e8cb4" stroke-opacity=".6" stroke-width="2"/>
<rect x="48" y="310" width="194" height="14" rx="6" fill="#2bd4c4" opacity=".18"/>
<g transform="translate(96.5,368.0) scale(1.0,1.0)"><path d="M-12,0 L-6,-5 L-5,0 L-6,5 Z" fill="#2bd4c4" opacity=".85"/><path d="M-8,3 L-30,10 L-28,11 L-7,5 Z" fill="#2bd4c4" opacity=".9"/><path d="M-1,-5 L3,-10 L8,-5 Z" fill="#2bd4c4" opacity=".8"/><ellipse cx="4" cy="0" rx="10" ry="4.6" fill="#2bd4c4"/><circle cx="10" cy="-1.2" r="1.3" fill="#061b2c"/></g>
<g transform="translate(145.0,368.0) scale(-1.0,1.0)"><path d="M-12,0 L-6,-5 L-5,0 L-6,5 Z" fill="#f4a23e" opacity=".85"/><path d="M-1,-5 L3,-10 L8,-5 Z" fill="#f4a23e" opacity=".8"/><ellipse cx="4" cy="0" rx="10" ry="4.6" fill="#f4a23e"/><circle cx="10" cy="-1.2" r="1.3" fill="#061b2c"/></g>
<g transform="translate(193.5,368.0) scale(1.0,1.0)"><path d="M-12,0 L-6,-5 L-5,0 L-6,5 Z" fill="#5b7efc" opacity=".85"/><path d="M-1,-5 L3,-10 L8,-5 Z" fill="#5b7efc" opacity=".8"/><ellipse cx="4" cy="0" rx="10" ry="4.6" fill="#5b7efc"/><circle cx="10" cy="-1.2" r="1.3" fill="#061b2c"/></g>
<g transform="translate(104.5,408.0) scale(1.0,1.0)"><path d="M-12,0 L-6,-5 L-5,0 L-6,5 Z" fill="#ff7a9e" opacity=".85"/><path d="M-8,3 L-30,10 L-28,11 L-7,5 Z" fill="#ff7a9e" opacity=".9"/><path d="M-1,-5 L3,-10 L8,-5 Z" fill="#ff7a9e" opacity=".8"/><ellipse cx="4" cy="0" rx="10" ry="4.6" fill="#ff7a9e"/><circle cx="10" cy="-1.2" r="1.3" fill="#061b2c"/></g>
<g transform="translate(153.0,408.0) scale(-1.0,1.0)"><path d="M-12,0 L-6,-5 L-5,0 L-6,5 Z" fill="#7ee081" opacity=".85"/><path d="M-1,-5 L3,-10 L8,-5 Z" fill="#7ee081" opacity=".8"/><ellipse cx="4" cy="0" rx="10" ry="4.6" fill="#7ee081"/><circle cx="10" cy="-1.2" r="1.3" fill="#061b2c"/></g>
<text x="145.0" y="504" text-anchor="middle" font-family="Inter,-apple-system,Segoe UI,sans-serif" font-size="20" font-weight="800" fill="#ffffff">20 gal</text>
<text x="145.0" y="528" text-anchor="middle" font-family="Inter,-apple-system,Segoe UI,sans-serif" font-size="15" fill="#8aaec2">76 L</text>
<text x="145.0" y="560" text-anchor="middle" font-family="Inter,-apple-system,Segoe UI,sans-serif" font-size="19" font-weight="700" fill="#2bd4c4">5–6 swordtails</text>
<rect x="270" y="268" width="233" height="202" rx="10" fill="url(#water)" stroke="#3e8cb4" stroke-opacity=".6" stroke-width="2"/>
<rect x="270" y="268" width="233" height="14" rx="6" fill="#2bd4c4" opacity=".18"/>
<g transform="translate(316.6,326.0) scale(1.0,1.0)"><path d="M-12,0 L-6,-5 L-5,0 L-6,5 Z" fill="#2bd4c4" opacity=".85"/><path d="M-8,3 L-30,10 L-28,11 L-7,5 Z" fill="#2bd4c4" opacity=".9"/><path d="M-1,-5 L3,-10 L8,-5 Z" fill="#2bd4c4" opacity=".8"/><ellipse cx="4" cy="0" rx="10" ry="4.6" fill="#2bd4c4"/><circle cx="10" cy="-1.2" r="1.3" fill="#061b2c"/></g>
<g transform="translate(363.2,326.0) scale(-1.0,1.0)"><path d="M-12,0 L-6,-5 L-5,0 L-6,5 Z" fill="#f4a23e" opacity=".85"/><path d="M-1,-5 L3,-10 L8,-5 Z" fill="#f4a23e" opacity=".8"/><ellipse cx="4" cy="0" rx="10" ry="4.6" fill="#f4a23e"/><circle cx="10" cy="-1.2" r="1.3" fill="#061b2c"/></g>
<g transform="translate(409.8,326.0) scale(1.0,1.0)"><path d="M-12,0 L-6,-5 L-5,0 L-6,5 Z" fill="#5b7efc" opacity=".85"/><path d="M-1,-5 L3,-10 L8,-5 Z" fill="#5b7efc" opacity=".8"/><ellipse cx="4" cy="0" rx="10" ry="4.6" fill="#5b7efc"/><circle cx="10" cy="-1.2" r="1.3" fill="#061b2c"/></g>
<g transform="translate(456.4,326.0) scale(-1.0,1.0)"><path d="M-12,0 L-6,-5 L-5,0 L-6,5 Z" fill="#ff7a9e" opacity=".85"/><path d="M-8,3 L-30,10 L-28,11 L-7,5 Z" fill="#ff7a9e" opacity=".9"/><path d="M-1,-5 L3,-10 L8,-5 Z" fill="#ff7a9e" opacity=".8"/><ellipse cx="4" cy="0" rx="10" ry="4.6" fill="#ff7a9e"/><circle cx="10" cy="-1.2" r="1.3" fill="#061b2c"/></g>
<g transform="translate(324.6,366.0) scale(-1.0,1.0)"><path d="M-12,0 L-6,-5 L-5,0 L-6,5 Z" fill="#7ee081" opacity=".85"/><path d="M-1,-5 L3,-10 L8,-5 Z" fill="#7ee081" opacity=".8"/><ellipse cx="4" cy="0" rx="10" ry="4.6" fill="#7ee081"/><circle cx="10" cy="-1.2" r="1.3" fill="#061b2c"/></g>
<g transform="translate(371.2,366.0) scale(1.0,1.0)"><path d="M-12,0 L-6,-5 L-5,0 L-6,5 Z" fill="#c88bff" opacity=".85"/><path d="M-1,-5 L3,-10 L8,-5 Z" fill="#c88bff" opacity=".8"/><ellipse cx="4" cy="0" rx="10" ry="4.6" fill="#c88bff"/><circle cx="10" cy="-1.2" r="1.3" fill="#061b2c"/></g>
<text x="386.5" y="504" text-anchor="middle" font-family="Inter,-apple-system,Segoe UI,sans-serif" font-size="20" font-weight="800" fill="#ffffff">29 gal</text>
<text x="386.5" y="528" text-anchor="middle" font-family="Inter,-apple-system,Segoe UI,sans-serif" font-size="15" fill="#8aaec2">110 L</text>
<text x="386.5" y="560" text-anchor="middle" font-family="Inter,-apple-system,Segoe UI,sans-serif" font-size="19" font-weight="700" fill="#2bd4c4">6–7 swordtails</text>
<rect x="531" y="226" width="272" height="244" rx="10" fill="url(#water)" stroke="#3e8cb4" stroke-opacity=".6" stroke-width="2"/>
<rect x="531" y="226" width="272" height="14" rx="6" fill="#2bd4c4" opacity=".18"/>
<g transform="translate(585.4,284.0) scale(1.0,1.0)"><path d="M-12,0 L-6,-5 L-5,0 L-6,5 Z" fill="#2bd4c4" opacity=".85"/><path d="M-8,3 L-30,10 L-28,11 L-7,5 Z" fill="#2bd4c4" opacity=".9"/><path d="M-1,-5 L3,-10 L8,-5 Z" fill="#2bd4c4" opacity=".8"/><ellipse cx="4" cy="0" rx="10" ry="4.6" fill="#2bd4c4"/><circle cx="10" cy="-1.2" r="1.3" fill="#061b2c"/></g>
<g transform="translate(639.8,284.0) scale(-1.0,1.0)"><path d="M-12,0 L-6,-5 L-5,0 L-6,5 Z" fill="#f4a23e" opacity=".85"/><path d="M-1,-5 L3,-10 L8,-5 Z" fill="#f4a23e" opacity=".8"/><ellipse cx="4" cy="0" rx="10" ry="4.6" fill="#f4a23e"/><circle cx="10" cy="-1.2" r="1.3" fill="#061b2c"/></g>
<g transform="translate(694.2,284.0) scale(1.0,1.0)"><path d="M-12,0 L-6,-5 L-5,0 L-6,5 Z" fill="#5b7efc" opacity=".85"/><path d="M-1,-5 L3,-10 L8,-5 Z" fill="#5b7efc" opacity=".8"/><ellipse cx="4" cy="0" rx="10" ry="4.6" fill="#5b7efc"/><circle cx="10" cy="-1.2" r="1.3" fill="#061b2c"/></g>
<g transform="translate(748.6,284.0) scale(-1.0,1.0)"><path d="M-12,0 L-6,-5 L-5,0 L-6,5 Z" fill="#ff7a9e" opacity=".85"/><path d="M-8,3 L-30,10 L-28,11 L-7,5 Z" fill="#ff7a9e" opacity=".9"/><path d="M-1,-5 L3,-10 L8,-5 Z" fill="#ff7a9e" opacity=".8"/><ellipse cx="4" cy="0" rx="10" ry="4.6" fill="#ff7a9e"/><circle cx="10" cy="-1.2" r="1.3" fill="#061b2c"/></g>
<g transform="translate(593.4,324.0) scale(-1.0,1.0)"><path d="M-12,0 L-6,-5 L-5,0 L-6,5 Z" fill="#7ee081" opacity=".85"/><path d="M-1,-5 L3,-10 L8,-5 Z" fill="#7ee081" opacity=".8"/><ellipse cx="4" cy="0" rx="10" ry="4.6" fill="#7ee081"/><circle cx="10" cy="-1.2" r="1.3" fill="#061b2c"/></g>
<g transform="translate(647.8,324.0) scale(1.0,1.0)"><path d="M-12,0 L-6,-5 L-5,0 L-6,5 Z" fill="#c88bff" opacity=".85"/><path d="M-1,-5 L3,-10 L8,-5 Z" fill="#c88bff" opacity=".8"/><ellipse cx="4" cy="0" rx="10" ry="4.6" fill="#c88bff"/><circle cx="10" cy="-1.2" r="1.3" fill="#061b2c"/></g>
<g transform="translate(702.2,324.0) scale(-1.0,1.0)"><path d="M-12,0 L-6,-5 L-5,0 L-6,5 Z" fill="#2bd4c4" opacity=".85"/><path d="M-8,3 L-30,10 L-28,11 L-7,5 Z" fill="#2bd4c4" opacity=".9"/><path d="M-1,-5 L3,-10 L8,-5 Z" fill="#2bd4c4" opacity=".8"/><ellipse cx="4" cy="0" rx="10" ry="4.6" fill="#2bd4c4"/><circle cx="10" cy="-1.2" r="1.3" fill="#061b2c"/></g>
<g transform="translate(756.6,324.0) scale(1.0,1.0)"><path d="M-12,0 L-6,-5 L-5,0 L-6,5 Z" fill="#f4a23e" opacity=".85"/><path d="M-1,-5 L3,-10 L8,-5 Z" fill="#f4a23e" opacity=".8"/><ellipse cx="4" cy="0" rx="10" ry="4.6" fill="#f4a23e"/><circle cx="10" cy="-1.2" r="1.3" fill="#061b2c"/></g>
<g transform="translate(585.4,364.0) scale(1.0,1.0)"><path d="M-12,0 L-6,-5 L-5,0 L-6,5 Z" fill="#5b7efc" opacity=".85"/><path d="M-1,-5 L3,-10 L8,-5 Z" fill="#5b7efc" opacity=".8"/><ellipse cx="4" cy="0" rx="10" ry="4.6" fill="#5b7efc"/><circle cx="10" cy="-1.2" r="1.3" fill="#061b2c"/></g>
<text x="667.0" y="504" text-anchor="middle" font-family="Inter,-apple-system,Segoe UI,sans-serif" font-size="20" font-weight="800" fill="#ffffff">40 gal breeder</text>
<text x="667.0" y="528" text-anchor="middle" font-family="Inter,-apple-system,Segoe UI,sans-serif" font-size="15" fill="#8aaec2">151 L</text>
<text x="667.0" y="560" text-anchor="middle" font-family="Inter,-apple-system,Segoe UI,sans-serif" font-size="19" font-weight="700" fill="#2bd4c4">9–10 swordtails</text>
<rect x="831" y="184" width="320" height="286" rx="10" fill="url(#water)" stroke="#3e8cb4" stroke-opacity=".6" stroke-width="2"/>
<rect x="831" y="184" width="320" height="14" rx="6" fill="#2bd4c4" opacity=".18"/>
<g transform="translate(895.0,242.0) scale(1.0,1.0)"><path d="M-12,0 L-6,-5 L-5,0 L-6,5 Z" fill="#2bd4c4" opacity=".85"/><path d="M-8,3 L-30,10 L-28,11 L-7,5 Z" fill="#2bd4c4" opacity=".9"/><path d="M-1,-5 L3,-10 L8,-5 Z" fill="#2bd4c4" opacity=".8"/><ellipse cx="4" cy="0" rx="10" ry="4.6" fill="#2bd4c4"/><circle cx="10" cy="-1.2" r="1.3" fill="#061b2c"/></g>
<g transform="translate(959.0,242.0) scale(-1.0,1.0)"><path d="M-12,0 L-6,-5 L-5,0 L-6,5 Z" fill="#f4a23e" opacity=".85"/><path d="M-1,-5 L3,-10 L8,-5 Z" fill="#f4a23e" opacity=".8"/><ellipse cx="4" cy="0" rx="10" ry="4.6" fill="#f4a23e"/><circle cx="10" cy="-1.2" r="1.3" fill="#061b2c"/></g>
<g transform="translate(1023.0,242.0) scale(1.0,1.0)"><path d="M-12,0 L-6,-5 L-5,0 L-6,5 Z" fill="#5b7efc" opacity=".85"/><path d="M-1,-5 L3,-10 L8,-5 Z" fill="#5b7efc" opacity=".8"/><ellipse cx="4" cy="0" rx="10" ry="4.6" fill="#5b7efc"/><circle cx="10" cy="-1.2" r="1.3" fill="#061b2c"/></g>
<g transform="translate(1087.0,242.0) scale(-1.0,1.0)"><path d="M-12,0 L-6,-5 L-5,0 L-6,5 Z" fill="#ff7a9e" opacity=".85"/><path d="M-8,3 L-30,10 L-28,11 L-7,5 Z" fill="#ff7a9e" opacity=".9"/><path d="M-1,-5 L3,-10 L8,-5 Z" fill="#ff7a9e" opacity=".8"/><ellipse cx="4" cy="0" rx="10" ry="4.6" fill="#ff7a9e"/><circle cx="10" cy="-1.2" r="1.3" fill="#061b2c"/></g>
<g transform="translate(903.0,282.0) scale(-1.0,1.0)"><path d="M-12,0 L-6,-5 L-5,0 L-6,5 Z" fill="#7ee081" opacity=".85"/><path d="M-1,-5 L3,-10 L8,-5 Z" fill="#7ee081" opacity=".8"/><ellipse cx="4" cy="0" rx="10" ry="4.6" fill="#7ee081"/><circle cx="10" cy="-1.2" r="1.3" fill="#061b2c"/></g>
<g transform="translate(967.0,282.0) scale(1.0,1.0)"><path d="M-12,0 L-6,-5 L-5,0 L-6,5 Z" fill="#c88bff" opacity=".85"/><path d="M-1,-5 L3,-10 L8,-5 Z" fill="#c88bff" opacity=".8"/><ellipse cx="4" cy="0" rx="10" ry="4.6" fill="#c88bff"/><circle cx="10" cy="-1.2" r="1.3" fill="#061b2c"/></g>
<g transform="translate(1031.0,282.0) scale(-1.0,1.0)"><path d="M-12,0 L-6,-5 L-5,0 L-6,5 Z" fill="#2bd4c4" opacity=".85"/><path d="M-8,3 L-30,10 L-28,11 L-7,5 Z" fill="#2bd4c4" opacity=".9"/><path d="M-1,-5 L3,-10 L8,-5 Z" fill="#2bd4c4" opacity=".8"/><ellipse cx="4" cy="0" rx="10" ry="4.6" fill="#2bd4c4"/><circle cx="10" cy="-1.2" r="1.3" fill="#061b2c"/></g>
<g transform="translate(1095.0,282.0) scale(1.0,1.0)"><path d="M-12,0 L-6,-5 L-5,0 L-6,5 Z" fill="#f4a23e" opacity=".85"/><path d="M-1,-5 L3,-10 L8,-5 Z" fill="#f4a23e" opacity=".8"/><ellipse cx="4" cy="0" rx="10" ry="4.6" fill="#f4a23e"/><circle cx="10" cy="-1.2" r="1.3" fill="#061b2c"/></g>
<g transform="translate(895.0,322.0) scale(1.0,1.0)"><path d="M-12,0 L-6,-5 L-5,0 L-6,5 Z" fill="#5b7efc" opacity=".85"/><path d="M-1,-5 L3,-10 L8,-5 Z" fill="#5b7efc" opacity=".8"/><ellipse cx="4" cy="0" rx="10" ry="4.6" fill="#5b7efc"/><circle cx="10" cy="-1.2" r="1.3" fill="#061b2c"/></g>
<g transform="translate(959.0,322.0) scale(-1.0,1.0)"><path d="M-12,0 L-6,-5 L-5,0 L-6,5 Z" fill="#ff7a9e" opacity=".85"/><path d="M-8,3 L-30,10 L-28,11 L-7,5 Z" fill="#ff7a9e" opacity=".9"/><path d="M-1,-5 L3,-10 L8,-5 Z" fill="#ff7a9e" opacity=".8"/><ellipse cx="4" cy="0" rx="10" ry="4.6" fill="#ff7a9e"/><circle cx="10" cy="-1.2" r="1.3" fill="#061b2c"/></g>
<g transform="translate(1023.0,322.0) scale(1.0,1.0)"><path d="M-12,0 L-6,-5 L-5,0 L-6,5 Z" fill="#7ee081" opacity=".85"/><path d="M-1,-5 L3,-10 L8,-5 Z" fill="#7ee081" opacity=".8"/><ellipse cx="4" cy="0" rx="10" ry="4.6" fill="#7ee081"/><circle cx="10" cy="-1.2" r="1.3" fill="#061b2c"/></g>
<g transform="translate(1087.0,322.0) scale(-1.0,1.0)"><path d="M-12,0 L-6,-5 L-5,0 L-6,5 Z" fill="#c88bff" opacity=".85"/><path d="M-1,-5 L3,-10 L8,-5 Z" fill="#c88bff" opacity=".8"/><ellipse cx="4" cy="0" rx="10" ry="4.6" fill="#c88bff"/><circle cx="10" cy="-1.2" r="1.3" fill="#061b2c"/></g>
<text x="991.0" y="504" text-anchor="middle" font-family="Inter,-apple-system,Segoe UI,sans-serif" font-size="20" font-weight="800" fill="#ffffff">55 gal</text>
<text x="991.0" y="528" text-anchor="middle" font-family="Inter,-apple-system,Segoe UI,sans-serif" font-size="15" fill="#8aaec2">208 L</text>
<text x="991.0" y="560" text-anchor="middle" font-family="Inter,-apple-system,Segoe UI,sans-serif" font-size="19" font-weight="700" fill="#2bd4c4">12–14 swordtails</text>
<line x1="48" y1="471" x2="1152" y2="471" stroke="#3e8cb4" stroke-opacity=".5" stroke-width="2"/>
<text x="48" y="612" font-family="Inter,-apple-system,Segoe UI,sans-serif" font-size="14" fill="#6f93a8">10 gallons is not recommended for swordtails. Upper counts need strong filtration; keep 1 male to 2–3 females. fishcareai.com</text>
</svg>