<svg xmlns="http://www.w3.org/2000/svg" viewBox="0 0 1200 720" role="img" aria-labelledby="title desc">
<title id="title">Convict Cichlid aquarium fish illustration</title><desc id="desc">Distinct local fallback illustration for Convict Cichlid on FishCare AI encyclopedia.</desc>
<defs><linearGradient id="water" x1="0" y1="0" x2="1" y2="1"><stop offset="0" stop-color="#dff7ff"/><stop offset=".55" stop-color="#b7ecff"/><stop offset="1" stop-color="#ecfff3"/></linearGradient><linearGradient id="body" x1="0" y1="0" x2="1" y2="1"><stop offset="0" stop-color="#ec4899"/><stop offset="1" stop-color="#7e22ce"/></linearGradient><filter id="shadow" x="-20%" y="-20%" width="140%" height="140%"><feDropShadow dx="0" dy="16" stdDeviation="18" flood-color="#0f3b4c" flood-opacity=".22"/></filter></defs>
<rect width="1200" height="720" fill="url(#water)"/><g opacity=".5" fill="#fff"><circle cx="135" cy="120" r="13"/><circle cx="245" cy="210" r="8"/><circle cx="1010" cy="150" r="12"/><circle cx="1080" cy="280" r="7"/></g>
<g opacity=".92"><path d="M86 710c22-150 55-270 112-365 34 130 35 255 12 365z" fill="#14965f"/><path d="M990 710c-9-140 25-270 92-380 40 130 35 260-10 380z" fill="#1faa69"/><path d="M175 710c8-112 40-215 100-304 25 120 2 225-36 304z" fill="#0f7f55"/><ellipse cx="600" cy="708" rx="610" ry="42" fill="#d7c8a4" opacity=".56"/></g>
<g filter="url(#shadow)" transform="scale(1,1) translate(0,0)"><path d="M420 380 C270 270,230 260,150 230 C230 345,230 415,150 530 C250 495,295 468,420 380Z" fill="#7e22ce" opacity=".92"/><path d="M500 305.5 C580 182.5,730 212.5,825 315.5 C690 303.5,580 311.5,500 305.5Z" fill="#7e22ce" opacity=".72"/><path d="M580 447.5 C680 572.5,805 547.5,845 480.5 C710 492.5,635 472.5,580 447.5Z" fill="#7e22ce" opacity=".62"/><path d="M400 380 C515 287.5,725 287.5,840 380 C725 472.5,515 472.5,400 380Z" fill="url(#body)"/><path d="M480 355 C610 285,730 455,870 372" stroke="#fce7f3" stroke-width="12" fill="none" opacity=".68"/><circle cx="765" cy="356" r="26" fill="#fff"/><circle cx="772" cy="356" r="14" fill="#111827"/><circle cx="777" cy="349" r="5" fill="#fff"/><path d="M802 412 C848 432,896 424,922 398" stroke="#123" stroke-width="8" opacity=".35" fill="none"/></g>
</svg>