<svg xmlns="http://www.w3.org/2000/svg" viewBox="0 0 1200 640" width="1200" height="640" role="img" aria-labelledby="t d">
<title id="t">Koi pond size: how many koi per pond?</title>
<desc id="d">Planning rule: 500 gallons per adult koi for comfortable stocking, 250 as the absolute ceiling. Ponds at least 3 feet deep.</desc>
<defs><linearGradient id="bg" x1="0" y1="0" x2="1" y2="1"><stop offset="0" stop-color="#061b2c"/><stop offset="1" stop-color="#0c3d5c"/></linearGradient>
<linearGradient id="water" x1="0" y1="0" x2="0" y2="1"><stop offset="0" stop-color="#1b6f8f" stop-opacity=".55"/><stop offset="1" stop-color="#0d3550" stop-opacity=".9"/></linearGradient></defs>
<rect width="1200" height="640" rx="24" fill="url(#bg)"/>
<text x="48" y="64" font-family="Inter,-apple-system,Segoe UI,sans-serif" font-size="30" font-weight="800" fill="#ffffff">Koi pond size: how many koi per pond?</text>
<text x="48" y="98" font-family="Inter,-apple-system,Segoe UI,sans-serif" font-size="17" fill="#8aaec2">Planning rule: 500 gallons per adult koi for comfortable stocking, 250 as the absolute ceiling. Ponds at least 3 feet deep.</text>
<rect x="48.0" y="320.0" width="187.2" height="150" rx="40" fill="url(#water)" stroke="#3e8cb4" stroke-opacity=".6" stroke-width="2"/>
<rect x="48.0" y="320.0" width="187.2" height="14" rx="6" fill="#2bd4c4" opacity=".18"/>
<g transform="translate(89.2,366.0) scale(1.0,1.0)"><path d="M-18,0 L-12,-5 L-11,0 L-12,5 Z" fill="#2bd4c4" opacity=".85"/><ellipse cx="0" cy="0" rx="14" ry="5" fill="#f3f4f6"/><ellipse cx="-3" cy="-1" rx="4" ry="2.5" fill="#2bd4c4"/><ellipse cx="7" cy="1" rx="3" ry="2" fill="#2bd4c4"/><circle cx="11" cy="-1" r="1.1" fill="#061b2c"/></g>
<g transform="translate(141.6,366.0) scale(-1.0,1.0)"><path d="M-18,0 L-12,-5 L-11,0 L-12,5 Z" fill="#f4a23e" opacity=".85"/><ellipse cx="0" cy="0" rx="14" ry="5" fill="#f3f4f6"/><ellipse cx="-3" cy="-1" rx="4" ry="2.5" fill="#f4a23e"/><ellipse cx="7" cy="1" rx="3" ry="2" fill="#f4a23e"/><circle cx="11" cy="-1" r="1.1" fill="#061b2c"/></g>
<g transform="translate(194.0,366.0) scale(1.0,1.0)"><path d="M-18,0 L-12,-5 L-11,0 L-12,5 Z" fill="#5b7efc" opacity=".85"/><ellipse cx="0" cy="0" rx="14" ry="5" fill="#f3f4f6"/><ellipse cx="-3" cy="-1" rx="4" ry="2.5" fill="#5b7efc"/><ellipse cx="7" cy="1" rx="3" ry="2" fill="#5b7efc"/><circle cx="11" cy="-1" r="1.1" fill="#061b2c"/></g>
<g transform="translate(95.2,398.0) scale(1.0,1.0)"><path d="M-18,0 L-12,-5 L-11,0 L-12,5 Z" fill="#ff7a9e" opacity=".85"/><ellipse cx="0" cy="0" rx="14" ry="5" fill="#f3f4f6"/><ellipse cx="-3" cy="-1" rx="4" ry="2.5" fill="#ff7a9e"/><ellipse cx="7" cy="1" rx="3" ry="2" fill="#ff7a9e"/><circle cx="11" cy="-1" r="1.1" fill="#061b2c"/></g>
<text x="141.6" y="504" text-anchor="middle" font-family="Inter,-apple-system,Segoe UI,sans-serif" font-size="20" font-weight="800" fill="#ffffff">1,000 gal</text>
<text x="141.6" y="528" text-anchor="middle" font-family="Inter,-apple-system,Segoe UI,sans-serif" font-size="15" fill="#8aaec2">3,785 L</text>
<text x="141.6" y="560" text-anchor="middle" font-family="Inter,-apple-system,Segoe UI,sans-serif" font-size="19" font-weight="700" fill="#2bd4c4">2–4 koi</text>
<rect x="263.2" y="290.0" width="233.9" height="180" rx="40" fill="url(#water)" stroke="#3e8cb4" stroke-opacity=".6" stroke-width="2"/>
<rect x="263.2" y="290.0" width="233.9" height="14" rx="6" fill="#2bd4c4" opacity=".18"/>
<g transform="translate(303.6,336.0) scale(1.0,1.0)"><path d="M-18,0 L-12,-5 L-11,0 L-12,5 Z" fill="#2bd4c4" opacity=".85"/><ellipse cx="0" cy="0" rx="14" ry="5" fill="#f3f4f6"/><ellipse cx="-3" cy="-1" rx="4" ry="2.5" fill="#2bd4c4"/><ellipse cx="7" cy="1" rx="3" ry="2" fill="#2bd4c4"/><circle cx="11" cy="-1" r="1.1" fill="#061b2c"/></g>
<g transform="translate(354.6,336.0) scale(-1.0,1.0)"><path d="M-18,0 L-12,-5 L-11,0 L-12,5 Z" fill="#f4a23e" opacity=".85"/><ellipse cx="0" cy="0" rx="14" ry="5" fill="#f3f4f6"/><ellipse cx="-3" cy="-1" rx="4" ry="2.5" fill="#f4a23e"/><ellipse cx="7" cy="1" rx="3" ry="2" fill="#f4a23e"/><circle cx="11" cy="-1" r="1.1" fill="#061b2c"/></g>
<g transform="translate(405.6,336.0) scale(1.0,1.0)"><path d="M-18,0 L-12,-5 L-11,0 L-12,5 Z" fill="#5b7efc" opacity=".85"/><ellipse cx="0" cy="0" rx="14" ry="5" fill="#f3f4f6"/><ellipse cx="-3" cy="-1" rx="4" ry="2.5" fill="#5b7efc"/><ellipse cx="7" cy="1" rx="3" ry="2" fill="#5b7efc"/><circle cx="11" cy="-1" r="1.1" fill="#061b2c"/></g>
<g transform="translate(456.6,336.0) scale(1.0,1.0)"><path d="M-18,0 L-12,-5 L-11,0 L-12,5 Z" fill="#ff7a9e" opacity=".85"/><ellipse cx="0" cy="0" rx="14" ry="5" fill="#f3f4f6"/><ellipse cx="-3" cy="-1" rx="4" ry="2.5" fill="#ff7a9e"/><ellipse cx="7" cy="1" rx="3" ry="2" fill="#ff7a9e"/><circle cx="11" cy="-1" r="1.1" fill="#061b2c"/></g>
<g transform="translate(309.6,368.0) scale(-1.0,1.0)"><path d="M-18,0 L-12,-5 L-11,0 L-12,5 Z" fill="#7ee081" opacity=".85"/><ellipse cx="0" cy="0" rx="14" ry="5" fill="#f3f4f6"/><ellipse cx="-3" cy="-1" rx="4" ry="2.5" fill="#7ee081"/><ellipse cx="7" cy="1" rx="3" ry="2" fill="#7ee081"/><circle cx="11" cy="-1" r="1.1" fill="#061b2c"/></g>
<g transform="translate(360.6,368.0) scale(1.0,1.0)"><path d="M-18,0 L-12,-5 L-11,0 L-12,5 Z" fill="#c88bff" opacity=".85"/><ellipse cx="0" cy="0" rx="14" ry="5" fill="#f3f4f6"/><ellipse cx="-3" cy="-1" rx="4" ry="2.5" fill="#c88bff"/><ellipse cx="7" cy="1" rx="3" ry="2" fill="#c88bff"/><circle cx="11" cy="-1" r="1.1" fill="#061b2c"/></g>
<g transform="translate(411.6,368.0) scale(1.0,1.0)"><path d="M-18,0 L-12,-5 L-11,0 L-12,5 Z" fill="#2bd4c4" opacity=".85"/><ellipse cx="0" cy="0" rx="14" ry="5" fill="#f3f4f6"/><ellipse cx="-3" cy="-1" rx="4" ry="2.5" fill="#2bd4c4"/><ellipse cx="7" cy="1" rx="3" ry="2" fill="#2bd4c4"/><circle cx="11" cy="-1" r="1.1" fill="#061b2c"/></g>
<g transform="translate(462.6,368.0) scale(-1.0,1.0)"><path d="M-18,0 L-12,-5 L-11,0 L-12,5 Z" fill="#f4a23e" opacity=".85"/><ellipse cx="0" cy="0" rx="14" ry="5" fill="#f3f4f6"/><ellipse cx="-3" cy="-1" rx="4" ry="2.5" fill="#f4a23e"/><ellipse cx="7" cy="1" rx="3" ry="2" fill="#f4a23e"/><circle cx="11" cy="-1" r="1.1" fill="#061b2c"/></g>
<text x="380.1" y="504" text-anchor="middle" font-family="Inter,-apple-system,Segoe UI,sans-serif" font-size="20" font-weight="800" fill="#ffffff">2,000 gal</text>
<text x="380.1" y="528" text-anchor="middle" font-family="Inter,-apple-system,Segoe UI,sans-serif" font-size="15" fill="#8aaec2">7,571 L</text>
<text x="380.1" y="560" text-anchor="middle" font-family="Inter,-apple-system,Segoe UI,sans-serif" font-size="19" font-weight="700" fill="#2bd4c4">4–8 koi</text>
<rect x="525.1" y="250.0" width="280.7" height="220" rx="40" fill="url(#water)" stroke="#3e8cb4" stroke-opacity=".6" stroke-width="2"/>
<rect x="525.1" y="250.0" width="280.7" height="14" rx="6" fill="#2bd4c4" opacity=".18"/>
<g transform="translate(565.2,296.0) scale(1.0,1.0)"><path d="M-18,0 L-12,-5 L-11,0 L-12,5 Z" fill="#2bd4c4" opacity=".85"/><ellipse cx="0" cy="0" rx="14" ry="5" fill="#f3f4f6"/><ellipse cx="-3" cy="-1" rx="4" ry="2.5" fill="#2bd4c4"/><ellipse cx="7" cy="1" rx="3" ry="2" fill="#2bd4c4"/><circle cx="11" cy="-1" r="1.1" fill="#061b2c"/></g>
<g transform="translate(615.3,296.0) scale(-1.0,1.0)"><path d="M-18,0 L-12,-5 L-11,0 L-12,5 Z" fill="#f4a23e" opacity=".85"/><ellipse cx="0" cy="0" rx="14" ry="5" fill="#f3f4f6"/><ellipse cx="-3" cy="-1" rx="4" ry="2.5" fill="#f4a23e"/><ellipse cx="7" cy="1" rx="3" ry="2" fill="#f4a23e"/><circle cx="11" cy="-1" r="1.1" fill="#061b2c"/></g>
<g transform="translate(665.5,296.0) scale(1.0,1.0)"><path d="M-18,0 L-12,-5 L-11,0 L-12,5 Z" fill="#5b7efc" opacity=".85"/><ellipse cx="0" cy="0" rx="14" ry="5" fill="#f3f4f6"/><ellipse cx="-3" cy="-1" rx="4" ry="2.5" fill="#5b7efc"/><ellipse cx="7" cy="1" rx="3" ry="2" fill="#5b7efc"/><circle cx="11" cy="-1" r="1.1" fill="#061b2c"/></g>
<g transform="translate(715.6,296.0) scale(1.0,1.0)"><path d="M-18,0 L-12,-5 L-11,0 L-12,5 Z" fill="#ff7a9e" opacity=".85"/><ellipse cx="0" cy="0" rx="14" ry="5" fill="#f3f4f6"/><ellipse cx="-3" cy="-1" rx="4" ry="2.5" fill="#ff7a9e"/><ellipse cx="7" cy="1" rx="3" ry="2" fill="#ff7a9e"/><circle cx="11" cy="-1" r="1.1" fill="#061b2c"/></g>
<g transform="translate(765.8,296.0) scale(-1.0,1.0)"><path d="M-18,0 L-12,-5 L-11,0 L-12,5 Z" fill="#7ee081" opacity=".85"/><ellipse cx="0" cy="0" rx="14" ry="5" fill="#f3f4f6"/><ellipse cx="-3" cy="-1" rx="4" ry="2.5" fill="#7ee081"/><ellipse cx="7" cy="1" rx="3" ry="2" fill="#7ee081"/><circle cx="11" cy="-1" r="1.1" fill="#061b2c"/></g>
<g transform="translate(571.2,328.0) scale(1.0,1.0)"><path d="M-18,0 L-12,-5 L-11,0 L-12,5 Z" fill="#c88bff" opacity=".85"/><ellipse cx="0" cy="0" rx="14" ry="5" fill="#f3f4f6"/><ellipse cx="-3" cy="-1" rx="4" ry="2.5" fill="#c88bff"/><ellipse cx="7" cy="1" rx="3" ry="2" fill="#c88bff"/><circle cx="11" cy="-1" r="1.1" fill="#061b2c"/></g>
<g transform="translate(621.3,328.0) scale(1.0,1.0)"><path d="M-18,0 L-12,-5 L-11,0 L-12,5 Z" fill="#2bd4c4" opacity=".85"/><ellipse cx="0" cy="0" rx="14" ry="5" fill="#f3f4f6"/><ellipse cx="-3" cy="-1" rx="4" ry="2.5" fill="#2bd4c4"/><ellipse cx="7" cy="1" rx="3" ry="2" fill="#2bd4c4"/><circle cx="11" cy="-1" r="1.1" fill="#061b2c"/></g>
<g transform="translate(671.5,328.0) scale(-1.0,1.0)"><path d="M-18,0 L-12,-5 L-11,0 L-12,5 Z" fill="#f4a23e" opacity=".85"/><ellipse cx="0" cy="0" rx="14" ry="5" fill="#f3f4f6"/><ellipse cx="-3" cy="-1" rx="4" ry="2.5" fill="#f4a23e"/><ellipse cx="7" cy="1" rx="3" ry="2" fill="#f4a23e"/><circle cx="11" cy="-1" r="1.1" fill="#061b2c"/></g>
<g transform="translate(721.6,328.0) scale(1.0,1.0)"><path d="M-18,0 L-12,-5 L-11,0 L-12,5 Z" fill="#5b7efc" opacity=".85"/><ellipse cx="0" cy="0" rx="14" ry="5" fill="#f3f4f6"/><ellipse cx="-3" cy="-1" rx="4" ry="2.5" fill="#5b7efc"/><ellipse cx="7" cy="1" rx="3" ry="2" fill="#5b7efc"/><circle cx="11" cy="-1" r="1.1" fill="#061b2c"/></g>
<g transform="translate(771.8,328.0) scale(1.0,1.0)"><path d="M-18,0 L-12,-5 L-11,0 L-12,5 Z" fill="#ff7a9e" opacity=".85"/><ellipse cx="0" cy="0" rx="14" ry="5" fill="#f3f4f6"/><ellipse cx="-3" cy="-1" rx="4" ry="2.5" fill="#ff7a9e"/><ellipse cx="7" cy="1" rx="3" ry="2" fill="#ff7a9e"/><circle cx="11" cy="-1" r="1.1" fill="#061b2c"/></g>
<g transform="translate(565.2,360.0) scale(-1.0,1.0)"><path d="M-18,0 L-12,-5 L-11,0 L-12,5 Z" fill="#7ee081" opacity=".85"/><ellipse cx="0" cy="0" rx="14" ry="5" fill="#f3f4f6"/><ellipse cx="-3" cy="-1" rx="4" ry="2.5" fill="#7ee081"/><ellipse cx="7" cy="1" rx="3" ry="2" fill="#7ee081"/><circle cx="11" cy="-1" r="1.1" fill="#061b2c"/></g>
<g transform="translate(615.3,360.0) scale(1.0,1.0)"><path d="M-18,0 L-12,-5 L-11,0 L-12,5 Z" fill="#c88bff" opacity=".85"/><ellipse cx="0" cy="0" rx="14" ry="5" fill="#f3f4f6"/><ellipse cx="-3" cy="-1" rx="4" ry="2.5" fill="#c88bff"/><ellipse cx="7" cy="1" rx="3" ry="2" fill="#c88bff"/><circle cx="11" cy="-1" r="1.1" fill="#061b2c"/></g>
<g transform="translate(665.5,360.0) scale(1.0,1.0)"><path d="M-18,0 L-12,-5 L-11,0 L-12,5 Z" fill="#2bd4c4" opacity=".85"/><ellipse cx="0" cy="0" rx="14" ry="5" fill="#f3f4f6"/><ellipse cx="-3" cy="-1" rx="4" ry="2.5" fill="#2bd4c4"/><ellipse cx="7" cy="1" rx="3" ry="2" fill="#2bd4c4"/><circle cx="11" cy="-1" r="1.1" fill="#061b2c"/></g>
<g transform="translate(715.6,360.0) scale(-1.0,1.0)"><path d="M-18,0 L-12,-5 L-11,0 L-12,5 Z" fill="#f4a23e" opacity=".85"/><ellipse cx="0" cy="0" rx="14" ry="5" fill="#f3f4f6"/><ellipse cx="-3" cy="-1" rx="4" ry="2.5" fill="#f4a23e"/><ellipse cx="7" cy="1" rx="3" ry="2" fill="#f4a23e"/><circle cx="11" cy="-1" r="1.1" fill="#061b2c"/></g>
<g transform="translate(765.8,360.0) scale(1.0,1.0)"><path d="M-18,0 L-12,-5 L-11,0 L-12,5 Z" fill="#5b7efc" opacity=".85"/><ellipse cx="0" cy="0" rx="14" ry="5" fill="#f3f4f6"/><ellipse cx="-3" cy="-1" rx="4" ry="2.5" fill="#5b7efc"/><ellipse cx="7" cy="1" rx="3" ry="2" fill="#5b7efc"/><circle cx="11" cy="-1" r="1.1" fill="#061b2c"/></g>
<g transform="translate(571.2,392.0) scale(1.0,1.0)"><path d="M-18,0 L-12,-5 L-11,0 L-12,5 Z" fill="#ff7a9e" opacity=".85"/><ellipse cx="0" cy="0" rx="14" ry="5" fill="#f3f4f6"/><ellipse cx="-3" cy="-1" rx="4" ry="2.5" fill="#ff7a9e"/><ellipse cx="7" cy="1" rx="3" ry="2" fill="#ff7a9e"/><circle cx="11" cy="-1" r="1.1" fill="#061b2c"/></g>
<g transform="translate(621.3,392.0) scale(-1.0,1.0)"><path d="M-18,0 L-12,-5 L-11,0 L-12,5 Z" fill="#7ee081" opacity=".85"/><ellipse cx="0" cy="0" rx="14" ry="5" fill="#f3f4f6"/><ellipse cx="-3" cy="-1" rx="4" ry="2.5" fill="#7ee081"/><ellipse cx="7" cy="1" rx="3" ry="2" fill="#7ee081"/><circle cx="11" cy="-1" r="1.1" fill="#061b2c"/></g>
<g transform="translate(671.5,392.0) scale(1.0,1.0)"><path d="M-18,0 L-12,-5 L-11,0 L-12,5 Z" fill="#c88bff" opacity=".85"/><ellipse cx="0" cy="0" rx="14" ry="5" fill="#f3f4f6"/><ellipse cx="-3" cy="-1" rx="4" ry="2.5" fill="#c88bff"/><ellipse cx="7" cy="1" rx="3" ry="2" fill="#c88bff"/><circle cx="11" cy="-1" r="1.1" fill="#061b2c"/></g>
<g transform="translate(721.6,392.0) scale(1.0,1.0)"><path d="M-18,0 L-12,-5 L-11,0 L-12,5 Z" fill="#2bd4c4" opacity=".85"/><ellipse cx="0" cy="0" rx="14" ry="5" fill="#f3f4f6"/><ellipse cx="-3" cy="-1" rx="4" ry="2.5" fill="#2bd4c4"/><ellipse cx="7" cy="1" rx="3" ry="2" fill="#2bd4c4"/><circle cx="11" cy="-1" r="1.1" fill="#061b2c"/></g>
<g transform="translate(771.8,392.0) scale(-1.0,1.0)"><path d="M-18,0 L-12,-5 L-11,0 L-12,5 Z" fill="#f4a23e" opacity=".85"/><ellipse cx="0" cy="0" rx="14" ry="5" fill="#f3f4f6"/><ellipse cx="-3" cy="-1" rx="4" ry="2.5" fill="#f4a23e"/><ellipse cx="7" cy="1" rx="3" ry="2" fill="#f4a23e"/><circle cx="11" cy="-1" r="1.1" fill="#061b2c"/></g>
<text x="665.5" y="504" text-anchor="middle" font-family="Inter,-apple-system,Segoe UI,sans-serif" font-size="20" font-weight="800" fill="#ffffff">5,000 gal</text>
<text x="665.5" y="528" text-anchor="middle" font-family="Inter,-apple-system,Segoe UI,sans-serif" font-size="15" fill="#8aaec2">18,927 L</text>
<text x="665.5" y="560" text-anchor="middle" font-family="Inter,-apple-system,Segoe UI,sans-serif" font-size="19" font-weight="700" fill="#2bd4c4">10–20 koi</text>
<rect x="833.8" y="220.0" width="318.2" height="250" rx="40" fill="url(#water)" stroke="#3e8cb4" stroke-opacity=".6" stroke-width="2"/>
<rect x="833.8" y="220.0" width="318.2" height="14" rx="6" fill="#2bd4c4" opacity=".18"/>
<g transform="translate(877.7,262.9) scale(1.0,1.0)"><path d="M-18,0 L-12,-5 L-11,0 L-12,5 Z" fill="#2bd4c4" opacity=".85"/><ellipse cx="0" cy="0" rx="14" ry="5" fill="#f3f4f6"/><ellipse cx="-3" cy="-1" rx="4" ry="2.5" fill="#2bd4c4"/><ellipse cx="7" cy="1" rx="3" ry="2" fill="#2bd4c4"/><circle cx="11" cy="-1" r="1.1" fill="#061b2c"/></g>
<g transform="translate(935.3,262.9) scale(-1.0,1.0)"><path d="M-18,0 L-12,-5 L-11,0 L-12,5 Z" fill="#f4a23e" opacity=".85"/><ellipse cx="0" cy="0" rx="14" ry="5" fill="#f3f4f6"/><ellipse cx="-3" cy="-1" rx="4" ry="2.5" fill="#f4a23e"/><ellipse cx="7" cy="1" rx="3" ry="2" fill="#f4a23e"/><circle cx="11" cy="-1" r="1.1" fill="#061b2c"/></g>
<g transform="translate(992.9,262.9) scale(1.0,1.0)"><path d="M-18,0 L-12,-5 L-11,0 L-12,5 Z" fill="#5b7efc" opacity=".85"/><ellipse cx="0" cy="0" rx="14" ry="5" fill="#f3f4f6"/><ellipse cx="-3" cy="-1" rx="4" ry="2.5" fill="#5b7efc"/><ellipse cx="7" cy="1" rx="3" ry="2" fill="#5b7efc"/><circle cx="11" cy="-1" r="1.1" fill="#061b2c"/></g>
<g transform="translate(1050.6,262.9) scale(1.0,1.0)"><path d="M-18,0 L-12,-5 L-11,0 L-12,5 Z" fill="#ff7a9e" opacity=".85"/><ellipse cx="0" cy="0" rx="14" ry="5" fill="#f3f4f6"/><ellipse cx="-3" cy="-1" rx="4" ry="2.5" fill="#ff7a9e"/><ellipse cx="7" cy="1" rx="3" ry="2" fill="#ff7a9e"/><circle cx="11" cy="-1" r="1.1" fill="#061b2c"/></g>
<g transform="translate(1108.2,262.9) scale(-1.0,1.0)"><path d="M-18,0 L-12,-5 L-11,0 L-12,5 Z" fill="#7ee081" opacity=".85"/><ellipse cx="0" cy="0" rx="14" ry="5" fill="#f3f4f6"/><ellipse cx="-3" cy="-1" rx="4" ry="2.5" fill="#7ee081"/><ellipse cx="7" cy="1" rx="3" ry="2" fill="#7ee081"/><circle cx="11" cy="-1" r="1.1" fill="#061b2c"/></g>
<g transform="translate(883.7,288.6) scale(1.0,1.0)"><path d="M-18,0 L-12,-5 L-11,0 L-12,5 Z" fill="#c88bff" opacity=".85"/><ellipse cx="0" cy="0" rx="14" ry="5" fill="#f3f4f6"/><ellipse cx="-3" cy="-1" rx="4" ry="2.5" fill="#c88bff"/><ellipse cx="7" cy="1" rx="3" ry="2" fill="#c88bff"/><circle cx="11" cy="-1" r="1.1" fill="#061b2c"/></g>
<g transform="translate(941.3,288.6) scale(1.0,1.0)"><path d="M-18,0 L-12,-5 L-11,0 L-12,5 Z" fill="#2bd4c4" opacity=".85"/><ellipse cx="0" cy="0" rx="14" ry="5" fill="#f3f4f6"/><ellipse cx="-3" cy="-1" rx="4" ry="2.5" fill="#2bd4c4"/><ellipse cx="7" cy="1" rx="3" ry="2" fill="#2bd4c4"/><circle cx="11" cy="-1" r="1.1" fill="#061b2c"/></g>
<g transform="translate(998.9,288.6) scale(-1.0,1.0)"><path d="M-18,0 L-12,-5 L-11,0 L-12,5 Z" fill="#f4a23e" opacity=".85"/><ellipse cx="0" cy="0" rx="14" ry="5" fill="#f3f4f6"/><ellipse cx="-3" cy="-1" rx="4" ry="2.5" fill="#f4a23e"/><ellipse cx="7" cy="1" rx="3" ry="2" fill="#f4a23e"/><circle cx="11" cy="-1" r="1.1" fill="#061b2c"/></g>
<g transform="translate(1056.6,288.6) scale(1.0,1.0)"><path d="M-18,0 L-12,-5 L-11,0 L-12,5 Z" fill="#5b7efc" opacity=".85"/><ellipse cx="0" cy="0" rx="14" ry="5" fill="#f3f4f6"/><ellipse cx="-3" cy="-1" rx="4" ry="2.5" fill="#5b7efc"/><ellipse cx="7" cy="1" rx="3" ry="2" fill="#5b7efc"/><circle cx="11" cy="-1" r="1.1" fill="#061b2c"/></g>
<g transform="translate(1114.2,288.6) scale(1.0,1.0)"><path d="M-18,0 L-12,-5 L-11,0 L-12,5 Z" fill="#ff7a9e" opacity=".85"/><ellipse cx="0" cy="0" rx="14" ry="5" fill="#f3f4f6"/><ellipse cx="-3" cy="-1" rx="4" ry="2.5" fill="#ff7a9e"/><ellipse cx="7" cy="1" rx="3" ry="2" fill="#ff7a9e"/><circle cx="11" cy="-1" r="1.1" fill="#061b2c"/></g>
<g transform="translate(877.7,314.4) scale(-1.0,1.0)"><path d="M-18,0 L-12,-5 L-11,0 L-12,5 Z" fill="#7ee081" opacity=".85"/><ellipse cx="0" cy="0" rx="14" ry="5" fill="#f3f4f6"/><ellipse cx="-3" cy="-1" rx="4" ry="2.5" fill="#7ee081"/><ellipse cx="7" cy="1" rx="3" ry="2" fill="#7ee081"/><circle cx="11" cy="-1" r="1.1" fill="#061b2c"/></g>
<g transform="translate(935.3,314.4) scale(1.0,1.0)"><path d="M-18,0 L-12,-5 L-11,0 L-12,5 Z" fill="#c88bff" opacity=".85"/><ellipse cx="0" cy="0" rx="14" ry="5" fill="#f3f4f6"/><ellipse cx="-3" cy="-1" rx="4" ry="2.5" fill="#c88bff"/><ellipse cx="7" cy="1" rx="3" ry="2" fill="#c88bff"/><circle cx="11" cy="-1" r="1.1" fill="#061b2c"/></g>
<g transform="translate(992.9,314.4) scale(1.0,1.0)"><path d="M-18,0 L-12,-5 L-11,0 L-12,5 Z" fill="#2bd4c4" opacity=".85"/><ellipse cx="0" cy="0" rx="14" ry="5" fill="#f3f4f6"/><ellipse cx="-3" cy="-1" rx="4" ry="2.5" fill="#2bd4c4"/><ellipse cx="7" cy="1" rx="3" ry="2" fill="#2bd4c4"/><circle cx="11" cy="-1" r="1.1" fill="#061b2c"/></g>
<g transform="translate(1050.6,314.4) scale(-1.0,1.0)"><path d="M-18,0 L-12,-5 L-11,0 L-12,5 Z" fill="#f4a23e" opacity=".85"/><ellipse cx="0" cy="0" rx="14" ry="5" fill="#f3f4f6"/><ellipse cx="-3" cy="-1" rx="4" ry="2.5" fill="#f4a23e"/><ellipse cx="7" cy="1" rx="3" ry="2" fill="#f4a23e"/><circle cx="11" cy="-1" r="1.1" fill="#061b2c"/></g>
<g transform="translate(1108.2,314.4) scale(1.0,1.0)"><path d="M-18,0 L-12,-5 L-11,0 L-12,5 Z" fill="#5b7efc" opacity=".85"/><ellipse cx="0" cy="0" rx="14" ry="5" fill="#f3f4f6"/><ellipse cx="-3" cy="-1" rx="4" ry="2.5" fill="#5b7efc"/><ellipse cx="7" cy="1" rx="3" ry="2" fill="#5b7efc"/><circle cx="11" cy="-1" r="1.1" fill="#061b2c"/></g>
<g transform="translate(883.7,340.1) scale(1.0,1.0)"><path d="M-18,0 L-12,-5 L-11,0 L-12,5 Z" fill="#ff7a9e" opacity=".85"/><ellipse cx="0" cy="0" rx="14" ry="5" fill="#f3f4f6"/><ellipse cx="-3" cy="-1" rx="4" ry="2.5" fill="#ff7a9e"/><ellipse cx="7" cy="1" rx="3" ry="2" fill="#ff7a9e"/><circle cx="11" cy="-1" r="1.1" fill="#061b2c"/></g>
<g transform="translate(941.3,340.1) scale(-1.0,1.0)"><path d="M-18,0 L-12,-5 L-11,0 L-12,5 Z" fill="#7ee081" opacity=".85"/><ellipse cx="0" cy="0" rx="14" ry="5" fill="#f3f4f6"/><ellipse cx="-3" cy="-1" rx="4" ry="2.5" fill="#7ee081"/><ellipse cx="7" cy="1" rx="3" ry="2" fill="#7ee081"/><circle cx="11" cy="-1" r="1.1" fill="#061b2c"/></g>
<g transform="translate(998.9,340.1) scale(1.0,1.0)"><path d="M-18,0 L-12,-5 L-11,0 L-12,5 Z" fill="#c88bff" opacity=".85"/><ellipse cx="0" cy="0" rx="14" ry="5" fill="#f3f4f6"/><ellipse cx="-3" cy="-1" rx="4" ry="2.5" fill="#c88bff"/><ellipse cx="7" cy="1" rx="3" ry="2" fill="#c88bff"/><circle cx="11" cy="-1" r="1.1" fill="#061b2c"/></g>
<g transform="translate(1056.6,340.1) scale(1.0,1.0)"><path d="M-18,0 L-12,-5 L-11,0 L-12,5 Z" fill="#2bd4c4" opacity=".85"/><ellipse cx="0" cy="0" rx="14" ry="5" fill="#f3f4f6"/><ellipse cx="-3" cy="-1" rx="4" ry="2.5" fill="#2bd4c4"/><ellipse cx="7" cy="1" rx="3" ry="2" fill="#2bd4c4"/><circle cx="11" cy="-1" r="1.1" fill="#061b2c"/></g>
<g transform="translate(1114.2,340.1) scale(-1.0,1.0)"><path d="M-18,0 L-12,-5 L-11,0 L-12,5 Z" fill="#f4a23e" opacity=".85"/><ellipse cx="0" cy="0" rx="14" ry="5" fill="#f3f4f6"/><ellipse cx="-3" cy="-1" rx="4" ry="2.5" fill="#f4a23e"/><ellipse cx="7" cy="1" rx="3" ry="2" fill="#f4a23e"/><circle cx="11" cy="-1" r="1.1" fill="#061b2c"/></g>
<g transform="translate(877.7,365.9) scale(1.0,1.0)"><path d="M-18,0 L-12,-5 L-11,0 L-12,5 Z" fill="#5b7efc" opacity=".85"/><ellipse cx="0" cy="0" rx="14" ry="5" fill="#f3f4f6"/><ellipse cx="-3" cy="-1" rx="4" ry="2.5" fill="#5b7efc"/><ellipse cx="7" cy="1" rx="3" ry="2" fill="#5b7efc"/><circle cx="11" cy="-1" r="1.1" fill="#061b2c"/></g>
<g transform="translate(935.3,365.9) scale(1.0,1.0)"><path d="M-18,0 L-12,-5 L-11,0 L-12,5 Z" fill="#ff7a9e" opacity=".85"/><ellipse cx="0" cy="0" rx="14" ry="5" fill="#f3f4f6"/><ellipse cx="-3" cy="-1" rx="4" ry="2.5" fill="#ff7a9e"/><ellipse cx="7" cy="1" rx="3" ry="2" fill="#ff7a9e"/><circle cx="11" cy="-1" r="1.1" fill="#061b2c"/></g>
<g transform="translate(992.9,365.9) scale(-1.0,1.0)"><path d="M-18,0 L-12,-5 L-11,0 L-12,5 Z" fill="#7ee081" opacity=".85"/><ellipse cx="0" cy="0" rx="14" ry="5" fill="#f3f4f6"/><ellipse cx="-3" cy="-1" rx="4" ry="2.5" fill="#7ee081"/><ellipse cx="7" cy="1" rx="3" ry="2" fill="#7ee081"/><circle cx="11" cy="-1" r="1.1" fill="#061b2c"/></g>
<g transform="translate(1050.6,365.9) scale(1.0,1.0)"><path d="M-18,0 L-12,-5 L-11,0 L-12,5 Z" fill="#c88bff" opacity=".85"/><ellipse cx="0" cy="0" rx="14" ry="5" fill="#f3f4f6"/><ellipse cx="-3" cy="-1" rx="4" ry="2.5" fill="#c88bff"/><ellipse cx="7" cy="1" rx="3" ry="2" fill="#c88bff"/><circle cx="11" cy="-1" r="1.1" fill="#061b2c"/></g>
<g transform="translate(1108.2,365.9) scale(1.0,1.0)"><path d="M-18,0 L-12,-5 L-11,0 L-12,5 Z" fill="#2bd4c4" opacity=".85"/><ellipse cx="0" cy="0" rx="14" ry="5" fill="#f3f4f6"/><ellipse cx="-3" cy="-1" rx="4" ry="2.5" fill="#2bd4c4"/><ellipse cx="7" cy="1" rx="3" ry="2" fill="#2bd4c4"/><circle cx="11" cy="-1" r="1.1" fill="#061b2c"/></g>
<g transform="translate(883.7,391.6) scale(-1.0,1.0)"><path d="M-18,0 L-12,-5 L-11,0 L-12,5 Z" fill="#f4a23e" opacity=".85"/><ellipse cx="0" cy="0" rx="14" ry="5" fill="#f3f4f6"/><ellipse cx="-3" cy="-1" rx="4" ry="2.5" fill="#f4a23e"/><ellipse cx="7" cy="1" rx="3" ry="2" fill="#f4a23e"/><circle cx="11" cy="-1" r="1.1" fill="#061b2c"/></g>
<g transform="translate(941.3,391.6) scale(1.0,1.0)"><path d="M-18,0 L-12,-5 L-11,0 L-12,5 Z" fill="#5b7efc" opacity=".85"/><ellipse cx="0" cy="0" rx="14" ry="5" fill="#f3f4f6"/><ellipse cx="-3" cy="-1" rx="4" ry="2.5" fill="#5b7efc"/><ellipse cx="7" cy="1" rx="3" ry="2" fill="#5b7efc"/><circle cx="11" cy="-1" r="1.1" fill="#061b2c"/></g>
<g transform="translate(998.9,391.6) scale(1.0,1.0)"><path d="M-18,0 L-12,-5 L-11,0 L-12,5 Z" fill="#ff7a9e" opacity=".85"/><ellipse cx="0" cy="0" rx="14" ry="5" fill="#f3f4f6"/><ellipse cx="-3" cy="-1" rx="4" ry="2.5" fill="#ff7a9e"/><ellipse cx="7" cy="1" rx="3" ry="2" fill="#ff7a9e"/><circle cx="11" cy="-1" r="1.1" fill="#061b2c"/></g>
<g transform="translate(1056.6,391.6) scale(-1.0,1.0)"><path d="M-18,0 L-12,-5 L-11,0 L-12,5 Z" fill="#7ee081" opacity=".85"/><ellipse cx="0" cy="0" rx="14" ry="5" fill="#f3f4f6"/><ellipse cx="-3" cy="-1" rx="4" ry="2.5" fill="#7ee081"/><ellipse cx="7" cy="1" rx="3" ry="2" fill="#7ee081"/><circle cx="11" cy="-1" r="1.1" fill="#061b2c"/></g>
<g transform="translate(1114.2,391.6) scale(1.0,1.0)"><path d="M-18,0 L-12,-5 L-11,0 L-12,5 Z" fill="#c88bff" opacity=".85"/><ellipse cx="0" cy="0" rx="14" ry="5" fill="#f3f4f6"/><ellipse cx="-3" cy="-1" rx="4" ry="2.5" fill="#c88bff"/><ellipse cx="7" cy="1" rx="3" ry="2" fill="#c88bff"/><circle cx="11" cy="-1" r="1.1" fill="#061b2c"/></g>
<g transform="translate(877.7,417.4) scale(1.0,1.0)"><path d="M-18,0 L-12,-5 L-11,0 L-12,5 Z" fill="#2bd4c4" opacity=".85"/><ellipse cx="0" cy="0" rx="14" ry="5" fill="#f3f4f6"/><ellipse cx="-3" cy="-1" rx="4" ry="2.5" fill="#2bd4c4"/><ellipse cx="7" cy="1" rx="3" ry="2" fill="#2bd4c4"/><circle cx="11" cy="-1" r="1.1" fill="#061b2c"/></g>
<g transform="translate(935.3,417.4) scale(-1.0,1.0)"><path d="M-18,0 L-12,-5 L-11,0 L-12,5 Z" fill="#f4a23e" opacity=".85"/><ellipse cx="0" cy="0" rx="14" ry="5" fill="#f3f4f6"/><ellipse cx="-3" cy="-1" rx="4" ry="2.5" fill="#f4a23e"/><ellipse cx="7" cy="1" rx="3" ry="2" fill="#f4a23e"/><circle cx="11" cy="-1" r="1.1" fill="#061b2c"/></g>
<g transform="translate(992.9,417.4) scale(1.0,1.0)"><path d="M-18,0 L-12,-5 L-11,0 L-12,5 Z" fill="#5b7efc" opacity=".85"/><ellipse cx="0" cy="0" rx="14" ry="5" fill="#f3f4f6"/><ellipse cx="-3" cy="-1" rx="4" ry="2.5" fill="#5b7efc"/><ellipse cx="7" cy="1" rx="3" ry="2" fill="#5b7efc"/><circle cx="11" cy="-1" r="1.1" fill="#061b2c"/></g>
<g transform="translate(1050.6,417.4) scale(1.0,1.0)"><path d="M-18,0 L-12,-5 L-11,0 L-12,5 Z" fill="#ff7a9e" opacity=".85"/><ellipse cx="0" cy="0" rx="14" ry="5" fill="#f3f4f6"/><ellipse cx="-3" cy="-1" rx="4" ry="2.5" fill="#ff7a9e"/><ellipse cx="7" cy="1" rx="3" ry="2" fill="#ff7a9e"/><circle cx="11" cy="-1" r="1.1" fill="#061b2c"/></g>
<g transform="translate(1108.2,417.4) scale(-1.0,1.0)"><path d="M-18,0 L-12,-5 L-11,0 L-12,5 Z" fill="#7ee081" opacity=".85"/><ellipse cx="0" cy="0" rx="14" ry="5" fill="#f3f4f6"/><ellipse cx="-3" cy="-1" rx="4" ry="2.5" fill="#7ee081"/><ellipse cx="7" cy="1" rx="3" ry="2" fill="#7ee081"/><circle cx="11" cy="-1" r="1.1" fill="#061b2c"/></g>
<g transform="translate(883.7,443.1) scale(1.0,1.0)"><path d="M-18,0 L-12,-5 L-11,0 L-12,5 Z" fill="#c88bff" opacity=".85"/><ellipse cx="0" cy="0" rx="14" ry="5" fill="#f3f4f6"/><ellipse cx="-3" cy="-1" rx="4" ry="2.5" fill="#c88bff"/><ellipse cx="7" cy="1" rx="3" ry="2" fill="#c88bff"/><circle cx="11" cy="-1" r="1.1" fill="#061b2c"/></g>
<g transform="translate(941.3,443.1) scale(1.0,1.0)"><path d="M-18,0 L-12,-5 L-11,0 L-12,5 Z" fill="#2bd4c4" opacity=".85"/><ellipse cx="0" cy="0" rx="14" ry="5" fill="#f3f4f6"/><ellipse cx="-3" cy="-1" rx="4" ry="2.5" fill="#2bd4c4"/><ellipse cx="7" cy="1" rx="3" ry="2" fill="#2bd4c4"/><circle cx="11" cy="-1" r="1.1" fill="#061b2c"/></g>
<g transform="translate(998.9,443.1) scale(-1.0,1.0)"><path d="M-18,0 L-12,-5 L-11,0 L-12,5 Z" fill="#f4a23e" opacity=".85"/><ellipse cx="0" cy="0" rx="14" ry="5" fill="#f3f4f6"/><ellipse cx="-3" cy="-1" rx="4" ry="2.5" fill="#f4a23e"/><ellipse cx="7" cy="1" rx="3" ry="2" fill="#f4a23e"/><circle cx="11" cy="-1" r="1.1" fill="#061b2c"/></g>
<g transform="translate(1056.6,443.1) scale(1.0,1.0)"><path d="M-18,0 L-12,-5 L-11,0 L-12,5 Z" fill="#5b7efc" opacity=".85"/><ellipse cx="0" cy="0" rx="14" ry="5" fill="#f3f4f6"/><ellipse cx="-3" cy="-1" rx="4" ry="2.5" fill="#5b7efc"/><ellipse cx="7" cy="1" rx="3" ry="2" fill="#5b7efc"/><circle cx="11" cy="-1" r="1.1" fill="#061b2c"/></g>
<g transform="translate(1114.2,443.1) scale(1.0,1.0)"><path d="M-18,0 L-12,-5 L-11,0 L-12,5 Z" fill="#ff7a9e" opacity=".85"/><ellipse cx="0" cy="0" rx="14" ry="5" fill="#f3f4f6"/><ellipse cx="-3" cy="-1" rx="4" ry="2.5" fill="#ff7a9e"/><ellipse cx="7" cy="1" rx="3" ry="2" fill="#ff7a9e"/><circle cx="11" cy="-1" r="1.1" fill="#061b2c"/></g>
<text x="992.9" y="504" text-anchor="middle" font-family="Inter,-apple-system,Segoe UI,sans-serif" font-size="20" font-weight="800" fill="#ffffff">10,000 gal</text>
<text x="992.9" y="528" text-anchor="middle" font-family="Inter,-apple-system,Segoe UI,sans-serif" font-size="15" fill="#8aaec2">37,854 L</text>
<text x="992.9" y="560" text-anchor="middle" font-family="Inter,-apple-system,Segoe UI,sans-serif" font-size="19" font-weight="700" fill="#2bd4c4">20–40 koi</text>
<line x1="48" y1="471" x2="1152" y2="471" stroke="#3e8cb4" stroke-opacity=".5" stroke-width="2"/>
<text x="48" y="612" font-family="Inter,-apple-system,Segoe UI,sans-serif" font-size="14" fill="#6f93a8">Counts are for adult koi at 24 inches or more; a young group looks under-stocked for its first few years. fishcareai.com</text>
</svg>